<mxfile host="app.diagrams.net" modified="2022-12-27T09:10:41.468Z" agent="5.0 (Macintosh; Intel Mac OS X 10_15_7) AppleWebKit/537.36 (KHTML, like Gecko) Chrome/107.0.0.0 Safari/537.36" etag="0DOL9zDGW0OwFQ1PhetW" version="20.4.1" type="github">
  <diagram id="uGmTBWZkChkYhaZ87-cj" name="第 1 页">
    <mxGraphModel dx="1018" dy="604" grid="1" gridSize="10" guides="1" tooltips="1" connect="1" arrows="1" fold="1" page="1" pageScale="1" pageWidth="827" pageHeight="1169" math="0" shadow="0">
      <root>
        <mxCell id="0" />
        <mxCell id="1" parent="0" />
        <mxCell id="XvsR5LYBpUdHOYx1DFgG-4" value="图引擎" style="rounded=0;whiteSpace=wrap;html=1;" vertex="1" parent="1">
          <mxGeometry x="320" y="120" width="240" height="360" as="geometry" />
        </mxCell>
        <mxCell id="XvsR5LYBpUdHOYx1DFgG-1" value="DSL解析" style="rounded=0;whiteSpace=wrap;html=1;" vertex="1" parent="1">
          <mxGeometry x="170" y="130" width="120" height="60" as="geometry" />
        </mxCell>
        <mxCell id="XvsR5LYBpUdHOYx1DFgG-2" value="Proxy" style="rounded=0;whiteSpace=wrap;html=1;" vertex="1" parent="1">
          <mxGeometry x="370" y="190" width="120" height="60" as="geometry" />
        </mxCell>
        <mxCell id="XvsR5LYBpUdHOYx1DFgG-3" value="Loader" style="rounded=0;whiteSpace=wrap;html=1;" vertex="1" parent="1">
          <mxGeometry x="370" y="280" width="120" height="60" as="geometry" />
        </mxCell>
        <mxCell id="XvsR5LYBpUdHOYx1DFgG-5" value="算子" style="rounded=0;whiteSpace=wrap;html=1;" vertex="1" parent="1">
          <mxGeometry x="370" y="380" width="120" height="60" as="geometry" />
        </mxCell>
        <mxCell id="XvsR5LYBpUdHOYx1DFgG-10" style="edgeStyle=orthogonalEdgeStyle;rounded=0;orthogonalLoop=1;jettySize=auto;html=1;exitX=0.25;exitY=1;exitDx=0;exitDy=0;entryX=0.25;entryY=0;entryDx=0;entryDy=0;" edge="1" parent="1" source="XvsR5LYBpUdHOYx1DFgG-6" target="XvsR5LYBpUdHOYx1DFgG-8">
          <mxGeometry relative="1" as="geometry" />
        </mxCell>
        <mxCell id="XvsR5LYBpUdHOYx1DFgG-6" value="正排" style="rounded=0;whiteSpace=wrap;html=1;" vertex="1" parent="1">
          <mxGeometry x="180" y="260" width="120" height="60" as="geometry" />
        </mxCell>
        <mxCell id="XvsR5LYBpUdHOYx1DFgG-7" value="图引擎" style="text;html=1;strokeColor=none;fillColor=none;align=center;verticalAlign=middle;whiteSpace=wrap;rounded=0;" vertex="1" parent="1">
          <mxGeometry x="330" y="130" width="60" height="30" as="geometry" />
        </mxCell>
        <mxCell id="XvsR5LYBpUdHOYx1DFgG-11" style="edgeStyle=orthogonalEdgeStyle;rounded=0;orthogonalLoop=1;jettySize=auto;html=1;exitX=0.75;exitY=0;exitDx=0;exitDy=0;entryX=0.75;entryY=1;entryDx=0;entryDy=0;" edge="1" parent="1" source="XvsR5LYBpUdHOYx1DFgG-8" target="XvsR5LYBpUdHOYx1DFgG-6">
          <mxGeometry relative="1" as="geometry" />
        </mxCell>
        <mxCell id="XvsR5LYBpUdHOYx1DFgG-8" value="缓存" style="rounded=0;whiteSpace=wrap;html=1;" vertex="1" parent="1">
          <mxGeometry x="180" y="380" width="120" height="60" as="geometry" />
        </mxCell>
      </root>
    </mxGraphModel>
  </diagram>
</mxfile>
